<?xml version="1.0" encoding="UTF-8" standalone="no"?>
<!-- Created with Inkscape (http://www.inkscape.org/) -->

<svg
   xmlns:dc="http://purl.org/dc/elements/1.1/"
   xmlns:cc="http://creativecommons.org/ns#"
   xmlns:rdf="http://www.w3.org/1999/02/22-rdf-syntax-ns#"
   xmlns:svg="http://www.w3.org/2000/svg"
   xmlns="http://www.w3.org/2000/svg"
   xmlns:sodipodi="http://sodipodi.sourceforge.net/DTD/sodipodi-0.dtd"
   xmlns:inkscape="http://www.inkscape.org/namespaces/inkscape"
   width="3355.3711"
   height="1357.1459"
   id="svg2"
   version="1.1"
   inkscape:version="0.48.4 r9939"
   sodipodi:docname="all-keys.svg">
  <defs
     id="defs4" />
  <sodipodi:namedview
     id="base"
     pagecolor="#222222"
     bordercolor="#666666"
     borderopacity="1.0"
     inkscape:pageopacity="1"
     inkscape:pageshadow="2"
     inkscape:zoom="0.24748737"
     inkscape:cx="1324.93"
     inkscape:cy="743.69354"
     inkscape:document-units="px"
     inkscape:current-layer="layer1"
     showgrid="true"
     inkscape:snap-bbox="true"
     fit-margin-top="0"
     fit-margin-left="0"
     fit-margin-right="0"
     fit-margin-bottom="0"
     inkscape:window-width="2074"
     inkscape:window-height="1036"
     inkscape:window-x="431"
     inkscape:window-y="338"
     inkscape:window-maximized="0"
     inkscape:snap-global="true">
    <inkscape:grid
       type="xygrid"
       id="grid2985"
       empspacing="5"
       visible="true"
       enabled="true"
       snapvisiblegridlinesonly="true"
       originx="5960.4395px"
       originy="290.4298px" />
  </sodipodi:namedview>
  <metadata
     id="metadata7">
    <rdf:RDF>
      <cc:Work
         rdf:about="">
        <dc:format>image/svg+xml</dc:format>
        <dc:type
           rdf:resource="http://purl.org/dc/dcmitype/StillImage" />
        <dc:title></dc:title>
      </cc:Work>
    </rdf:RDF>
  </metadata>
  <g
     inkscape:label="Layer 1"
     inkscape:groupmode="layer"
     id="layer1"
     transform="translate(5960.4395,14.353835)">
    <path
       style="fill:#ffffff;fill-opacity:1;stroke:none"
       d="m -3720,172.36223 c -138.0712,0 -250,40.29437 -250,90 0,49.70563 111.9288,90 250,90 138.0712,0 250,-40.29437 250,-90 0,-49.70563 -111.9288,-90 -250,-90 z m 0,20 c 110.4569,0 200,22.38576 200,50 0,27.61424 -89.5431,50 -200,50 -110.457,0 -200,-22.38576 -200,-50 0,-27.61424 89.543,-50 200,-50 z"
       id="path2987"
       inkscape:connector-curvature="0" />
    <path
       style="fill:#ffffff;fill-opacity:1;stroke:none"
       d="m -3800,182.36223 40,-49.99999 -20,0 60,-30 0,79.99999 z"
       id="path3759"
       inkscape:connector-curvature="0" />
    <path
       style="fill:#ffffff;fill-opacity:1;stroke:none"
       d="m -3640,182.36223 -40,-49.99999 20,0 -60,-30 0,79.99999 z"
       id="path3759-6"
       inkscape:connector-curvature="0" />
    <path
       style="fill:#ffffff;fill-opacity:1;stroke:none"
       d="m -3950,237.36223 c -10,0 -65,5 -65,5 l 15,-10 -90,20 45,30 15,-15 80,10 z"
       id="path3779"
       inkscape:connector-curvature="0"
       sodipodi:nodetypes="cccccccc" />
    <path
       style="fill:#ffffff;fill-opacity:1;stroke:none"
       d="m -3489.5,237.86223 c 10,0 65,5 65,5 l -15,-10 90,20 -45,30 -15,-15 -80,10 z"
       id="path3779-6"
       inkscape:connector-curvature="0"
       sodipodi:nodetypes="cccccccc" />
    <path
       style="fill:#ffffff;fill-opacity:1;stroke:none"
       d="m -3820,332.36223 -20,50.00001 -30,0 150,100 0,-150.00001 z"
       id="path3799"
       inkscape:connector-curvature="0" />
    <path
       style="fill:#ffffff;fill-opacity:1;stroke:none"
       d="m -3620,332.36223 20,50.00001 30,0 -150,100 0,-150.00001 z"
       id="path3799-9"
       inkscape:connector-curvature="0" />
    <text
       xml:space="preserve"
       style="font-size:34.46187973px;font-style:normal;font-variant:normal;font-weight:normal;font-stretch:normal;line-height:125%;letter-spacing:0px;word-spacing:0px;fill:#000000;fill-opacity:1;stroke:none;font-family:Laffayette Comic Pro;-inkscape-font-specification:Laffayette Comic Pro"
       x="-3766.7178"
       y="92.164391"
       id="text3094"
       sodipodi:linespacing="125%"><tspan
         sodipodi:role="line"
         id="tspan3096"
         x="-3766.7178"
         y="92.164391"
         style="font-size:94.77017212px;font-style:normal;font-variant:normal;font-weight:normal;font-stretch:normal;fill:#ffffff;font-family:Sans;-inkscape-font-specification:Sans">W</tspan></text>
    <text
       xml:space="preserve"
       style="font-size:34.46187973px;font-style:normal;font-variant:normal;font-weight:normal;font-stretch:normal;line-height:125%;letter-spacing:0px;word-spacing:0px;fill:#000000;fill-opacity:1;stroke:none;font-family:Laffayette Comic Pro;-inkscape-font-specification:Laffayette Comic Pro"
       x="-4162.4116"
       y="281.19183"
       id="text3094-6"
       sodipodi:linespacing="125%"><tspan
         sodipodi:role="line"
         id="tspan3096-8"
         x="-4162.4116"
         y="281.19183"
         style="font-size:94.77017212px;font-style:normal;font-variant:normal;font-weight:normal;font-stretch:normal;fill:#ffffff;font-family:Sans;-inkscape-font-specification:Sans">A</tspan></text>
    <text
       xml:space="preserve"
       style="font-size:34.46187973px;font-style:normal;font-variant:normal;font-weight:normal;font-stretch:normal;line-height:125%;letter-spacing:0px;word-spacing:0px;fill:#000000;fill-opacity:1;stroke:none;font-family:Laffayette Comic Pro;-inkscape-font-specification:Laffayette Comic Pro"
       x="-3345.269"
       y="294.04901"
       id="text3094-3"
       sodipodi:linespacing="125%"><tspan
         sodipodi:role="line"
         id="tspan3096-0"
         x="-3345.269"
         y="294.04901"
         style="font-size:94.77017212px;font-style:normal;font-variant:normal;font-weight:normal;font-stretch:normal;fill:#ffffff;font-family:Sans;-inkscape-font-specification:Sans">S</tspan></text>
    <text
       xml:space="preserve"
       style="font-size:16px;font-style:normal;font-variant:normal;font-weight:normal;font-stretch:normal;line-height:125%;letter-spacing:0px;word-spacing:0px;fill:#000000;fill-opacity:1;stroke:none;font-family:Laffayette Comic Pro;-inkscape-font-specification:Laffayette Comic Pro"
       x="348.57144"
       y="461.42856"
       id="text3128"
       sodipodi:linespacing="125%"
       transform="translate(-1.25,282.36218)"><tspan
         sodipodi:role="line"
         id="tspan3130"
         x="348.57144"
         y="461.42856" /></text>
    <text
       xml:space="preserve"
       style="font-size:34.46187973px;font-style:normal;font-variant:normal;font-weight:normal;font-stretch:normal;line-height:125%;letter-spacing:0px;word-spacing:0px;fill:#000000;fill-opacity:1;stroke:none;font-family:Laffayette Comic Pro;-inkscape-font-specification:Laffayette Comic Pro"
       x="-3752.2134"
       y="566.90613"
       id="text3094-6-6"
       sodipodi:linespacing="125%"><tspan
         sodipodi:role="line"
         id="tspan3096-8-7"
         x="-3752.2134"
         y="566.90613"
         style="font-size:94.77017212px;font-style:normal;font-variant:normal;font-weight:normal;font-stretch:normal;fill:#ffffff;font-family:Sans;-inkscape-font-specification:Sans">D</tspan></text>
    <path
       style="fill:#ffffff;fill-opacity:1;stroke:none"
       d="m -2885,257.36222 5,0 5,0 c 0.4328,17.193 40,19 40,19 l 0,16.00002 c -51.184,-3.1598 -50,-35.00002 -50,-35.00002 z"
       id="path3215-9-9"
       inkscape:connector-curvature="0"
       sodipodi:nodetypes="cccccc" />
    <path
       style="fill:#ffffff;fill-opacity:1;stroke:none"
       d="m -2785,257.36222 -5,0 -5,0 c -0.4328,17.193 -40,19 -40,19 l 0,16.00002 c 51.1839,-3.1598 50,-35.00002 50,-35.00002 z"
       id="path3215-2-7-9"
       inkscape:connector-curvature="0"
       sodipodi:nodetypes="cccccc" />
    <path
       style="fill:#ffffff;fill-opacity:1;stroke:none"
       d="m -2885,237.36222 5,0 5,0 c 0.4328,17.193 40,19 40,19 l 0,16 c -51.184,-3.1598 -50,-35 -50,-35 z"
       id="path3215-6-9"
       inkscape:connector-curvature="0"
       sodipodi:nodetypes="cccccc" />
    <path
       style="fill:#ffffff;fill-opacity:1;stroke:none"
       d="m -2785,237.36222 -5,0 -5,0 c -0.4328,17.193 -40,19 -40,19 l 0,16 c 51.1839,-3.1598 50,-35 50,-35 z"
       id="path3215-2-0-8"
       inkscape:connector-curvature="0"
       sodipodi:nodetypes="cccccc" />
    <path
       style="fill:#ffffff;fill-opacity:1;stroke:none"
       d="m -2885,217.36222 5,0 5,0 c 0.4328,17.193 40,19 40,19 l 0,16 c -51.184,-3.1598 -50,-35 -50,-35 z"
       id="path3215-33"
       inkscape:connector-curvature="0"
       sodipodi:nodetypes="cccccc" />
    <path
       style="fill:#ffffff;fill-opacity:1;stroke:none"
       d="m -2785,217.36222 -5,0 -5,0 c -0.4328,17.193 -40,19 -40,19 l 0,16 c 51.1839,-3.1598 50,-35 50,-35 z"
       id="path3215-2-75"
       inkscape:connector-curvature="0"
       sodipodi:nodetypes="cccccc" />
    <path
       style="fill:#ffffff;fill-opacity:1;stroke:none"
       d="m -2885,197.36222 5,0 5,0 c 0.4328,17.193 40,19 40,19 l 0,16 c -51.184,-3.1598 -50,-35 -50,-35 z"
       id="path3215-9-5"
       inkscape:connector-curvature="0"
       sodipodi:nodetypes="cccccc" />
    <path
       style="fill:#ffffff;fill-opacity:1;stroke:none"
       d="m -2785,197.36222 -5,0 -5,0 c -0.4328,17.193 -40,19 -40,19 l 0,16 c 51.1839,-3.1598 50,-35 50,-35 z"
       id="path3215-2-7-2"
       inkscape:connector-curvature="0"
       sodipodi:nodetypes="cccccc" />
    <path
       style="fill:#ffffff;fill-opacity:1;stroke:none"
       d="m -2885,177.36222 5,0 5,0 c 0.4328,17.193 40,19 40,19 l 0,16 c -51.184,-3.1598 -50,-35 -50,-35 z"
       id="path3215-6-97"
       inkscape:connector-curvature="0"
       sodipodi:nodetypes="cccccc" />
    <path
       style="fill:#ffffff;fill-opacity:1;stroke:none"
       d="m -2785,177.36222 -5,0 -5,0 c -0.4328,17.193 -40,19 -40,19 l 0,16 c 51.1839,-3.1598 50,-35 50,-35 z"
       id="path3215-2-0-5"
       inkscape:connector-curvature="0"
       sodipodi:nodetypes="cccccc" />
    <path
       style="fill:#ffffff;fill-opacity:1;stroke:none"
       d="m -2884.9977,377.36222 5,0 5,0 c 0.4328,17.193 40,19 40,19 l 0,16 c -51.184,-3.1598 -50,-35 -50,-35 z"
       id="path3215-64"
       inkscape:connector-curvature="0"
       sodipodi:nodetypes="cccccc" />
    <path
       style="fill:#ffffff;fill-opacity:1;stroke:none"
       d="m -2784.9977,377.36222 -5,0 -5,0 c -0.4328,17.193 -40,19 -40,19 l 0,16 c 51.1839,-3.1598 50,-35 50,-35 z"
       id="path3215-2-9"
       inkscape:connector-curvature="0"
       sodipodi:nodetypes="cccccc" />
    <path
       style="fill:#ffffff;fill-opacity:1;stroke:none"
       d="m -2884.9977,357.36222 5,0 5,0 c 0.4328,17.193 40,19 40,19 l 0,16 c -51.184,-3.1598 -50,-35 -50,-35 z"
       id="path3215-9-8"
       inkscape:connector-curvature="0"
       sodipodi:nodetypes="cccccc" />
    <path
       style="fill:#ffffff;fill-opacity:1;stroke:none"
       d="m -2784.9977,357.36222 -5,0 -5,0 c -0.4328,17.193 -40,19 -40,19 l 0,16 c 51.1839,-3.1598 50,-35 50,-35 z"
       id="path3215-2-7-1"
       inkscape:connector-curvature="0"
       sodipodi:nodetypes="cccccc" />
    <path
       style="fill:#ffffff;fill-opacity:1;stroke:none"
       d="m -2884.9977,337.36222 5,0 5,0 c 0.4328,17.193 40,19 40,19 l 0,16 c -51.184,-3.1598 -50,-35 -50,-35 z"
       id="path3215-6-8"
       inkscape:connector-curvature="0"
       sodipodi:nodetypes="cccccc" />
    <path
       style="fill:#ffffff;fill-opacity:1;stroke:none"
       d="m -2784.9977,337.36222 -5,0 -5,0 c -0.4328,17.193 -40,19 -40,19 l 0,16 c 51.1839,-3.1598 50,-35 50,-35 z"
       id="path3215-2-0-0"
       inkscape:connector-curvature="0"
       sodipodi:nodetypes="cccccc" />
    <path
       style="fill:#ffffff;fill-opacity:1;stroke:none"
       d="m -2884.9977,317.36222 5,0 5,0 c 0.4328,17.193 40,19 40,19 l 0,16 c -51.184,-3.1598 -50,-35 -50,-35 z"
       id="path3215-3-0"
       inkscape:connector-curvature="0"
       sodipodi:nodetypes="cccccc" />
    <path
       style="fill:#ffffff;fill-opacity:1;stroke:none"
       d="m -2784.9977,317.36222 -5,0 -5,0 c -0.4328,17.193 -40,19 -40,19 l 0,16 c 51.1839,-3.1598 50,-35 50,-35 z"
       id="path3215-2-08-5"
       inkscape:connector-curvature="0"
       sodipodi:nodetypes="cccccc" />
    <path
       style="fill:#ffffff;fill-opacity:1;stroke:none"
       d="m -2884.9977,297.36222 5,0 5,0 c 0.4328,17.193 40,19 40,19 l 0,16 c -51.184,-3.1598 -50,-35 -50,-35 z"
       id="path3215-9-9-8"
       inkscape:connector-curvature="0"
       sodipodi:nodetypes="cccccc" />
    <path
       style="fill:#ffffff;fill-opacity:1;stroke:none"
       d="m -2784.9977,297.36222 -5,0 -5,0 c -0.4328,17.193 -40,19 -40,19 l 0,16 c 51.1839,-3.1598 50,-35 50,-35 z"
       id="path3215-2-7-9-0"
       inkscape:connector-curvature="0"
       sodipodi:nodetypes="cccccc" />
    <path
       style="fill:#ffffff;fill-opacity:1;stroke:none"
       d="m -2884.9977,277.36222 5,0 5,0 c 0.4328,17.193 40,19 40,19 l 0,16 c -51.184,-3.1598 -50,-35 -50,-35 z"
       id="path3215-6-9-7"
       inkscape:connector-curvature="0"
       sodipodi:nodetypes="cccccc" />
    <path
       style="fill:#ffffff;fill-opacity:1;stroke:none"
       d="m -2784.9977,277.36222 -5,0 -5,0 c -0.4328,17.193 -40,19 -40,19 l 0,16 c 51.1839,-3.1598 50,-35 50,-35 z"
       id="path3215-2-0-8-1"
       inkscape:connector-curvature="0"
       sodipodi:nodetypes="cccccc" />
    <path
       style="fill:#ffffff;fill-opacity:1;stroke:none"
       d="m -2920,167.36222 85,-74.999986 90,74.999986 c 0,35 -175,35 -175,0 z"
       id="path4164"
       inkscape:connector-curvature="0"
       sodipodi:nodetypes="cccc" />
    <path
       sodipodi:type="arc"
       style="fill:#ffffff;fill-opacity:1;stroke:none"
       id="path4184"
       sodipodi:cx="351.25"
       sodipodi:cy="1180"
       sodipodi:rx="90"
       sodipodi:ry="25.384583"
       d="m 441.25,1180 c 0,14.0195 -40.29437,25.3846 -90,25.3846 -49.70563,0 -90,-11.3651 -90,-25.3846 0,-14.0195 40.29437,-25.3846 90,-25.3846 49.70563,0 90,11.3651 90,25.3846 z"
       transform="matrix(0.97222222,0,0,1.0833333,-3178.9908,-858.47117)" />
    <path
       style="fill:#ffffff;fill-opacity:1;stroke:none"
       d="m -2924.9977,418.61222 85,75 90,-75 c 0,43.75 -175,43.75 -175,0 z"
       id="path4164-1"
       inkscape:connector-curvature="0"
       sodipodi:nodetypes="cccc" />
    <text
       xml:space="preserve"
       style="font-size:16px;font-style:normal;font-variant:normal;font-weight:normal;font-stretch:normal;line-height:125%;letter-spacing:0px;word-spacing:0px;fill:#000000;fill-opacity:1;stroke:none;font-family:Laffayette Comic Pro;-inkscape-font-specification:Laffayette Comic Pro"
       x="28.571428"
       y="720"
       id="text4186"
       sodipodi:linespacing="125%"
       transform="translate(-1.25,282.36218)"><tspan
         sodipodi:role="line"
         id="tspan4188"
         x="28.571428"
         y="720" /></text>
    <text
       xml:space="preserve"
       style="font-size:34.46187973px;font-style:normal;font-variant:normal;font-weight:normal;font-stretch:normal;line-height:125%;letter-spacing:0px;word-spacing:0px;fill:#000000;fill-opacity:1;stroke:none;font-family:Laffayette Comic Pro;-inkscape-font-specification:Laffayette Comic Pro"
       x="-3051.2471"
       y="57.649284"
       id="text3094-2"
       sodipodi:linespacing="125%"><tspan
         sodipodi:role="line"
         id="tspan3096-3"
         x="-3051.2471"
         y="57.649284"
         style="font-size:94.77017212px;font-style:normal;font-variant:normal;font-weight:normal;font-stretch:normal;fill:#ffffff;font-family:Sans;-inkscape-font-specification:Sans">Spacebar</tspan></text>
    <text
       xml:space="preserve"
       style="font-size:34.46187973px;font-style:normal;font-variant:normal;font-weight:normal;font-stretch:normal;line-height:125%;letter-spacing:0px;word-spacing:0px;fill:#000000;fill-opacity:1;stroke:none;font-family:Laffayette Comic Pro;-inkscape-font-specification:Laffayette Comic Pro"
       x="-2948.1404"
       y="586.02026"
       id="text3094-2-7"
       sodipodi:linespacing="125%"><tspan
         sodipodi:role="line"
         id="tspan3096-3-5"
         x="-2948.1404"
         y="586.02026"
         style="font-size:94.77017212px;font-style:normal;font-variant:normal;font-weight:normal;font-stretch:normal;fill:#ffffff;font-family:Sans;-inkscape-font-specification:Sans">Shift</tspan></text>
    <path
       style="fill:#ffffff;fill-opacity:1;stroke:none"
       d="m -4953.9471,203.0765 -38.848,25.89867 38.848,25.89862 0,-12.94934 64.7467,0 0,-25.89861 -64.7467,0 z"
       id="path4508"
       inkscape:connector-curvature="0" />
    <path
       style="fill:#ffffff;fill-opacity:1;stroke:none"
       d="m -4798.555,99.481791 -25.8987,-38.848016 -25.8987,38.848016 12.9494,0 0,64.746689 25.8987,0 0,-64.746689 z"
       id="path4508-7"
       inkscape:connector-curvature="0" />
    <path
       style="fill:#ffffff;fill-opacity:1;stroke:none"
       d="m -4694.9603,203.0765 38.848,25.89867 -38.848,25.89862 0,-12.94934 -64.7467,0 0,-25.89861 64.7467,0 z"
       id="path4508-4"
       inkscape:connector-curvature="0" />
    <path
       style="fill:#ffffff;fill-opacity:1;stroke:none"
       d="m -4798.555,358.4685 -25.8987,38.84801 -25.8987,-38.84801 12.9494,0 0,-64.7467 25.8987,0 0,64.7467 z"
       id="path4508-4-1"
       inkscape:connector-curvature="0" />
    <text
       xml:space="preserve"
       style="font-size:34.46187973px;font-style:normal;font-variant:normal;font-weight:normal;font-stretch:normal;line-height:125%;letter-spacing:0px;word-spacing:0px;fill:#000000;fill-opacity:1;stroke:none;font-family:Laffayette Comic Pro;-inkscape-font-specification:Laffayette Comic Pro"
       x="-5002.2959"
       y="501.73456"
       id="text3094-69"
       sodipodi:linespacing="125%"><tspan
         sodipodi:role="line"
         id="tspan3096-05"
         x="-5002.2959"
         y="501.73456"
         style="font-size:94.77017212px;font-style:normal;font-variant:normal;font-weight:normal;font-stretch:normal;fill:#ffffff;font-family:Sans;-inkscape-font-specification:Sans">Mouse</tspan></text>
    <path
       sodipodi:type="arc"
       style="fill:none;stroke:#ffffff;stroke-width:8.19999981;stroke-miterlimit:4;stroke-opacity:1;stroke-dasharray:none"
       id="path4574"
       sodipodi:cx="451.67139"
       sodipodi:cy="-530.71429"
       sodipodi:rx="140"
       sodipodi:ry="140"
       d="m 591.67139,-530.71429 c 0,77.31986 -62.68014,140 -140,140 -77.31987,0 -140,-62.68014 -140,-140 0,-77.31987 62.68013,-140 140,-140 77.31986,0 140,62.68013 140,140 z"
       transform="matrix(1.2949339,0,0,1.2949339,-5410.5037,915.04959)" />
    <text
       xml:space="preserve"
       style="font-size:34.46187973px;font-style:normal;font-variant:normal;font-weight:normal;font-stretch:normal;line-height:125%;letter-spacing:0px;word-spacing:0px;fill:#000000;fill-opacity:1;stroke:none;font-family:Laffayette Comic Pro;-inkscape-font-specification:Laffayette Comic Pro"
       x="-5951.1377"
       y="163.69031"
       id="text3094-69-1"
       sodipodi:linespacing="125%"><tspan
         sodipodi:role="line"
         id="tspan3096-05-9"
         x="-5951.1377"
         y="163.69031"
         style="font-size:150px;font-style:normal;font-variant:normal;font-weight:normal;font-stretch:normal;fill:#ffffff;font-family:Sans;-inkscape-font-specification:Sans">Camera </tspan><tspan
         sodipodi:role="line"
         x="-5951.1377"
         y="351.19031"
         style="font-size:150px;font-style:normal;font-variant:normal;font-weight:normal;font-stretch:normal;fill:#ffffff;font-family:Sans;-inkscape-font-specification:Sans"
         id="tspan4342">controls</tspan></text>
    <text
       xml:space="preserve"
       style="font-size:34.46187973px;font-style:normal;font-variant:normal;font-weight:normal;font-stretch:normal;line-height:125%;letter-spacing:0px;word-spacing:0px;fill:#000000;fill-opacity:1;stroke:none;font-family:Laffayette Comic Pro;-inkscape-font-specification:Laffayette Comic Pro"
       x="-5960"
       y="972.36218"
       id="text3094-69-1-2"
       sodipodi:linespacing="125%"><tspan
         sodipodi:role="line"
         id="tspan3096-05-9-4"
         x="-5960"
         y="972.36218"
         style="font-size:150px;font-style:normal;font-variant:normal;font-weight:normal;font-stretch:normal;fill:#ffffff;font-family:Sans;-inkscape-font-specification:Sans">Tank </tspan><tspan
         sodipodi:role="line"
         x="-5960"
         y="1159.8622"
         style="font-size:150px;font-style:normal;font-variant:normal;font-weight:normal;font-stretch:normal;fill:#ffffff;font-family:Sans;-inkscape-font-specification:Sans"
         id="tspan4344">controls</tspan></text>
    <rect
       style="fill:#ffffff;fill-opacity:1;stroke:none"
       id="rect3230"
       width="229.74356"
       height="114.87178"
       x="-4949.7437"
       y="1052.3622" />
    <path
       style="fill:#ffffff;fill-opacity:1;stroke:none"
       d="m -4949.7436,1052.3622 c 14.3589,0 129.2307,-57.43585 129.2307,-57.43585 l 143.5897,0 -43.0769,57.43585 z"
       id="path3232"
       inkscape:connector-curvature="0" />
    <rect
       style="fill:#ffffff;fill-opacity:1;stroke:none"
       id="rect4002"
       width="674.8717"
       height="143.58972"
       x="-5179.4873"
       y="1195.9519" />
    <path
       style="fill:#ffffff;fill-opacity:1;stroke:none"
       d="m -4676.9232,1052.3622 445.1282,-157.94865 14.359,43.0769 -459.4872,157.94875 z"
       id="path4004"
       inkscape:connector-curvature="0" />
    <text
       xml:space="preserve"
       style="font-size:16px;font-style:normal;font-variant:normal;font-weight:normal;font-stretch:normal;line-height:125%;letter-spacing:0px;word-spacing:0px;fill:#000000;fill-opacity:1;stroke:none;font-family:Laffayette Comic Pro;-inkscape-font-specification:Laffayette Comic Pro"
       x="-4299.209"
       y="1623.7614"
       id="text4006"
       sodipodi:linespacing="125%"
       transform="translate(-71.671397,-492.63779)"><tspan
         sodipodi:role="line"
         id="tspan4008"
         x="-4299.209"
         y="1623.7614" /></text>
    <text
       xml:space="preserve"
       style="font-size:24.74185944px;font-style:normal;font-variant:normal;font-weight:normal;font-stretch:normal;line-height:125%;letter-spacing:0px;word-spacing:0px;fill:#000000;fill-opacity:1;stroke:none;font-family:Laffayette Comic Pro;-inkscape-font-specification:Laffayette Comic Pro"
       x="-4724.3438"
       y="-637.60217"
       id="text3094-69-5"
       sodipodi:linespacing="125%"
       transform="matrix(0.93953538,-0.34245185,0.34245185,0.93953538,0,0)"><tspan
         sodipodi:role="line"
         id="tspan3096-05-7"
         x="-4724.3438"
         y="-637.60217"
         style="font-size:94.77017212px;font-style:normal;font-variant:normal;font-weight:normal;font-stretch:normal;fill:#ffffff;font-family:Sans;-inkscape-font-specification:Sans">Arrow keys</tspan></text>
    <rect
       style="fill:#ffffff;fill-opacity:1;stroke:none"
       id="rect4031-6"
       width="99.999992"
       height="40.000019"
       x="-3900"
       y="1192.3622" />
    <rect
       style="fill:#ffffff;fill-opacity:1;stroke:none"
       id="rect4031-2"
       width="99.999992"
       height="40.000019"
       x="-3900"
       y="1132.3622" />
    <rect
       style="fill:#ffffff;fill-opacity:1;stroke:none"
       id="rect4031-6-5"
       width="99.999992"
       height="40.000019"
       x="-3900"
       y="1072.3622" />
    <rect
       style="fill:#ffffff;fill-opacity:1;stroke:none"
       id="rect4031-0"
       width="99.999992"
       height="40.000019"
       x="-3900"
       y="1012.3622" />
    <rect
       style="fill:#ffffff;fill-opacity:1;stroke:none"
       id="rect4031-6-2"
       width="99.999992"
       height="40.000019"
       x="-3900"
       y="952.36224" />
    <path
       style="fill:#ffffff;fill-opacity:1;stroke:none"
       d="m -3920,932.36224 140,0 0,-20 -60,-80 -20,0 -60,80 z"
       id="path4081"
       inkscape:connector-curvature="0" />
    <rect
       style="fill:#ffffff;fill-opacity:1;stroke:none"
       id="rect4031-6-53"
       width="99.999992"
       height="40.000019"
       x="-3620"
       y="-892.36224"
       transform="scale(1,-1)" />
    <rect
       style="fill:#ffffff;fill-opacity:1;stroke:none"
       id="rect4031-2-0"
       width="99.999992"
       height="40.000019"
       x="-3620"
       y="-952.36224"
       transform="scale(1,-1)" />
    <rect
       style="fill:#ffffff;fill-opacity:1;stroke:none"
       id="rect4031-6-5-5"
       width="99.999992"
       height="40.000019"
       x="-3620"
       y="-1012.3622"
       transform="scale(1,-1)" />
    <rect
       style="fill:#ffffff;fill-opacity:1;stroke:none"
       id="rect4031-0-4"
       width="99.999992"
       height="40.000019"
       x="-3620"
       y="-1072.3622"
       transform="scale(1,-1)" />
    <rect
       style="fill:#ffffff;fill-opacity:1;stroke:none"
       id="rect4031-6-2-8"
       width="99.999992"
       height="40.000019"
       x="-3620"
       y="-1132.3622"
       transform="scale(1,-1)" />
    <path
       style="fill:#ffffff;fill-opacity:1;stroke:none"
       d="m -3640,1152.3622 140,0 0,20 -60,80 -20,0 -60,-80 z"
       id="path4081-1"
       inkscape:connector-curvature="0" />
    <text
       xml:space="preserve"
       style="font-size:34.46187973px;font-style:normal;font-variant:normal;font-weight:normal;font-stretch:normal;line-height:125%;letter-spacing:0px;word-spacing:0px;fill:#000000;fill-opacity:1;stroke:none;font-family:Laffayette Comic Pro;-inkscape-font-specification:Laffayette Comic Pro"
       x="-3980"
       y="792.36224"
       id="text3094-2-3"
       sodipodi:linespacing="125%"><tspan
         sodipodi:role="line"
         id="tspan3096-3-56"
         x="-3980"
         y="792.36224"
         style="font-size:94.77017212px;font-style:normal;font-variant:normal;font-weight:normal;font-stretch:normal;fill:#ffffff;font-family:Sans;-inkscape-font-specification:Sans">PgUp</tspan></text>
    <text
       xml:space="preserve"
       style="font-size:34.46187973px;font-style:normal;font-variant:normal;font-weight:normal;font-stretch:normal;line-height:125%;letter-spacing:0px;word-spacing:0px;fill:#000000;fill-opacity:1;stroke:none;font-family:Laffayette Comic Pro;-inkscape-font-specification:Laffayette Comic Pro"
       x="-3668.7529"
       y="787.0752"
       id="text3094-2-3-6"
       sodipodi:linespacing="125%"><tspan
         sodipodi:role="line"
         id="tspan3096-3-56-8"
         x="-3668.7529"
         y="787.0752"
         style="font-size:94.77017212px;font-style:normal;font-variant:normal;font-weight:normal;font-stretch:normal;fill:#ffffff;font-family:Sans;-inkscape-font-specification:Sans">PgDn</tspan></text>
    <text
       xml:space="preserve"
       style="font-size:34.46187973px;font-style:normal;font-variant:normal;font-weight:normal;font-stretch:normal;line-height:125%;letter-spacing:0px;word-spacing:0px;fill:#000000;fill-opacity:1;stroke:none;font-family:Laffayette Comic Pro;-inkscape-font-specification:Laffayette Comic Pro"
       x="-3981.738"
       y="1341.4501"
       id="text3094-2-3-5"
       sodipodi:linespacing="125%"><tspan
         sodipodi:role="line"
         id="tspan3096-3-56-0"
         x="-3981.738"
         y="1341.4501"
         style="font-size:94.77017212px;font-style:normal;font-variant:normal;font-weight:normal;font-stretch:normal;fill:#ffffff;font-family:Sans;-inkscape-font-specification:Sans">Power level</tspan></text>
    <text
       xml:space="preserve"
       style="font-size:168.47450256px;font-style:normal;font-variant:normal;font-weight:normal;font-stretch:normal;line-height:125%;letter-spacing:0px;word-spacing:0px;fill:#000000;fill-opacity:1;stroke:none;font-family:Laffayette Comic Pro;-inkscape-font-specification:Laffayette Comic Pro"
       x="-2954.5681"
       y="1197.3622"
       id="text3094-6-6-3"
       sodipodi:linespacing="125%"><tspan
         sodipodi:role="line"
         id="tspan3096-8-7-4"
         x="-2954.5681"
         y="1197.3622"
         style="font-size:463.30490112px;font-style:normal;font-variant:normal;font-weight:normal;font-stretch:normal;fill:#ffffff;font-family:Sans;-inkscape-font-specification:Sans">F</tspan></text>
    <text
       xml:space="preserve"
       style="font-size:34.46187973px;font-style:normal;font-variant:normal;font-weight:normal;font-stretch:normal;line-height:125%;letter-spacing:0px;word-spacing:0px;fill:#000000;fill-opacity:1;stroke:none;font-family:Laffayette Comic Pro;-inkscape-font-specification:Laffayette Comic Pro"
       x="-2923.8694"
       y="1316.0203"
       id="text3094-2-3-5-4"
       sodipodi:linespacing="125%"><tspan
         sodipodi:role="line"
         id="tspan3096-3-56-0-5"
         x="-2923.8694"
         y="1316.0203"
         style="font-size:94.77017212px;font-style:normal;font-variant:normal;font-weight:normal;font-stretch:normal;fill:#ffffff;font-family:Sans;-inkscape-font-specification:Sans">Fire!</tspan></text>
  </g>
</svg>
