<?xml version="1.0" encoding="UTF-8" standalone="no"?>
<!-- Created with Inkscape (http://www.inkscape.org/) -->

<svg
   xmlns:dc="http://purl.org/dc/elements/1.1/"
   xmlns:cc="http://creativecommons.org/ns#"
   xmlns:rdf="http://www.w3.org/1999/02/22-rdf-syntax-ns#"
   xmlns:svg="http://www.w3.org/2000/svg"
   xmlns="http://www.w3.org/2000/svg"
   xmlns:sodipodi="http://sodipodi.sourceforge.net/DTD/sodipodi-0.dtd"
   xmlns:inkscape="http://www.inkscape.org/namespaces/inkscape"
   width="743"
   height="380"
   id="svg2"
   version="1.1"
   inkscape:version="0.48.4 r9939"
   sodipodi:docname="directions.svg">
  <defs
     id="defs4" />
  <sodipodi:namedview
     id="base"
     pagecolor="#ffffff"
     bordercolor="#666666"
     borderopacity="1.0"
     inkscape:pageopacity="0.0"
     inkscape:pageshadow="2"
     inkscape:zoom="0.7"
     inkscape:cx="566.15809"
     inkscape:cy="109.59335"
     inkscape:document-units="px"
     inkscape:current-layer="layer1"
     showgrid="true"
     inkscape:snap-bbox="true"
     fit-margin-top="0"
     fit-margin-left="0"
     fit-margin-right="0"
     fit-margin-bottom="0"
     inkscape:window-width="1627"
     inkscape:window-height="771"
     inkscape:window-x="524"
     inkscape:window-y="259"
     inkscape:window-maximized="0">
    <inkscape:grid
       type="xygrid"
       id="grid2985"
       empspacing="5"
       visible="true"
       enabled="true"
       snapvisiblegridlinesonly="true"
       originx="1.25px"
       originy="-390px" />
  </sodipodi:namedview>
  <metadata
     id="metadata7">
    <rdf:RDF>
      <cc:Work
         rdf:about="">
        <dc:format>image/svg+xml</dc:format>
        <dc:type
           rdf:resource="http://purl.org/dc/dcmitype/StillImage" />
        <dc:title></dc:title>
      </cc:Work>
    </rdf:RDF>
  </metadata>
  <g
     inkscape:label="Layer 1"
     inkscape:groupmode="layer"
     id="layer1"
     transform="translate(1.25,-282.36218)">
    <path
       style="fill:#ffffff;fill-opacity:1;stroke:none"
       d="M 371.25 70 C 233.17881 70 121.25 110.29437 121.25 160 C 121.25 209.70563 233.17881 250 371.25 250 C 509.32119 250 621.25 209.70563 621.25 160 C 621.25 110.29437 509.32119 70 371.25 70 z M 371.25 90 C 481.70695 90 571.25 112.38576 571.25 140 C 571.25 167.61424 481.70695 190 371.25 190 C 260.79305 190 171.25 167.61424 171.25 140 C 171.25 112.38576 260.79305 90 371.25 90 z "
       id="path2987"
       transform="translate(-1.25,282.36218)" />
    <path
       style="fill:#ffffff;fill-opacity:1;stroke:none"
       d="m 290,362.36218 40,-50 -20,0 60,-30 0,80 z"
       id="path3759"
       inkscape:connector-curvature="0" />
    <path
       style="fill:#ffffff;fill-opacity:1;stroke:none"
       d="m 450,362.36218 -40,-50 20,0 -60,-30 0,80 z"
       id="path3759-6"
       inkscape:connector-curvature="0" />
    <path
       style="fill:#ffffff;fill-opacity:1;stroke:none;stroke-width:1px;stroke-linecap:butt;stroke-linejoin:miter;stroke-opacity:1"
       d="m 140,417.36218 c -10,0 -65,5 -65,5 l 15,-10 -90,20 45,30 15,-15 80,10 z"
       id="path3779"
       inkscape:connector-curvature="0"
       sodipodi:nodetypes="cccccccc" />
    <path
       style="fill:#ffffff;fill-opacity:1;stroke:none;stroke-width:1px;stroke-linecap:butt;stroke-linejoin:miter;stroke-opacity:1"
       d="m 600.5,417.86218 c 10,0 65,5 65,5 l -15,-10 90,20 -45,30 -15,-15 -80,10 z"
       id="path3779-6"
       inkscape:connector-curvature="0"
       sodipodi:nodetypes="cccccccc" />
    <path
       style="fill:#ffffff;fill-opacity:1;stroke:none"
       d="m 270,512.36218 -20,50 -30,0 150,100 0,-150 z"
       id="path3799"
       inkscape:connector-curvature="0" />
    <path
       style="fill:#ffffff;fill-opacity:1;stroke:none"
       d="m 470,512.36218 20,50 30,0 -150,100 0,-150 z"
       id="path3799-9"
       inkscape:connector-curvature="0" />
  </g>
</svg>
